<svg id="visual" viewBox="0 0 960 300" width="960" height="300" xmlns="http://www.w3.org/2000/svg" xmlns:xlink="http://www.w3.org/1999/xlink" version="1.1"><rect x="0" y="0" width="960" height="300" fill="#202731"></rect><path d="M0 94L22.8 98.5C45.7 103 91.3 112 137 116.2C182.7 120.3 228.3 119.7 274 112.2C319.7 104.7 365.3 90.3 411.2 90.2C457 90 503 104 548.8 108.3C594.7 112.7 640.3 107.3 686 103.8C731.7 100.3 777.3 98.7 823 99.7C868.7 100.7 914.3 104.3 937.2 106.2L960 108L960 0L937.2 0C914.3 0 868.7 0 823 0C777.3 0 731.7 0 686 0C640.3 0 594.7 0 548.8 0C503 0 457 0 411.2 0C365.3 0 319.7 0 274 0C228.3 0 182.7 0 137 0C91.3 0 45.7 0 22.8 0L0 0Z" fill="#ff6f61"></path><path d="M0 79L22.8 80.7C45.7 82.3 91.3 85.7 137 85C182.7 84.3 228.3 79.7 274 76.8C319.7 74 365.3 73 411.2 71.7C457 70.3 503 68.7 548.8 72.2C594.7 75.7 640.3 84.3 686 88.8C731.7 93.3 777.3 93.7 823 89C868.7 84.3 914.3 74.7 937.2 69.8L960 65L960 0L937.2 0C914.3 0 868.7 0 823 0C777.3 0 731.7 0 686 0C640.3 0 594.7 0 548.8 0C503 0 457 0 411.2 0C365.3 0 319.7 0 274 0C228.3 0 182.7 0 137 0C91.3 0 45.7 0 22.8 0L0 0Z" fill="#f76455"></path><path d="M0 55L22.8 58.5C45.7 62 91.3 69 137 70.2C182.7 71.3 228.3 66.7 274 66.2C319.7 65.7 365.3 69.3 411.2 68.3C457 67.3 503 61.7 548.8 57.5C594.7 53.3 640.3 50.7 686 54.2C731.7 57.7 777.3 67.3 823 70.7C868.7 74 914.3 71 937.2 69.5L960 68L960 0L937.2 0C914.3 0 868.7 0 823 0C777.3 0 731.7 0 686 0C640.3 0 594.7 0 548.8 0C503 0 457 0 411.2 0C365.3 0 319.7 0 274 0C228.3 0 182.7 0 137 0C91.3 0 45.7 0 22.8 0L0 0Z" fill="#ee5849"></path><path d="M0 34L22.8 36.7C45.7 39.3 91.3 44.7 137 44.3C182.7 44 228.3 38 274 38C319.7 38 365.3 44 411.2 48C457 52 503 54 548.8 54.3C594.7 54.7 640.3 53.3 686 51.5C731.7 49.7 777.3 47.3 823 45.7C868.7 44 914.3 43 937.2 42.5L960 42L960 0L937.2 0C914.3 0 868.7 0 823 0C777.3 0 731.7 0 686 0C640.3 0 594.7 0 548.8 0C503 0 457 0 411.2 0C365.3 0 319.7 0 274 0C228.3 0 182.7 0 137 0C91.3 0 45.7 0 22.8 0L0 0Z" fill="#e64c3d"></path><path d="M0 25L22.8 25.5C45.7 26 91.3 27 137 28.8C182.7 30.7 228.3 33.3 274 32.7C319.7 32 365.3 28 411.2 27.5C457 27 503 30 548.8 30.7C594.7 31.3 640.3 29.7 686 28.8C731.7 28 777.3 28 823 25.3C868.7 22.7 914.3 17.3 937.2 14.7L960 12L960 0L937.2 0C914.3 0 868.7 0 823 0C777.3 0 731.7 0 686 0C640.3 0 594.7 0 548.8 0C503 0 457 0 411.2 0C365.3 0 319.7 0 274 0C228.3 0 182.7 0 137 0C91.3 0 45.7 0 22.8 0L0 0Z" fill="#dd3f31"></path></svg>