<svg id="visual" viewBox="0 0 960 300" width="960" height="300" xmlns="http://www.w3.org/2000/svg" xmlns:xlink="http://www.w3.org/1999/xlink" version="1.1"><rect x="0" y="0" width="960" height="300" fill="#ff0066"></rect><path d="M0 93L13.3 98.3C26.7 103.7 53.3 114.3 80 121.7C106.7 129 133.3 133 160 134.7C186.7 136.3 213.3 135.7 240 130.7C266.7 125.7 293.3 116.3 320 107.2C346.7 98 373.3 89 400 88.3C426.7 87.7 453.3 95.3 480 101.3C506.7 107.3 533.3 111.7 560 118.2C586.7 124.7 613.3 133.3 640 137.8C666.7 142.3 693.3 142.7 720 138.5C746.7 134.3 773.3 125.7 800 127.3C826.7 129 853.3 141 880 146.2C906.7 151.3 933.3 149.7 946.7 148.8L960 148L960 301L946.7 301C933.3 301 906.7 301 880 301C853.3 301 826.7 301 800 301C773.3 301 746.7 301 720 301C693.3 301 666.7 301 640 301C613.3 301 586.7 301 560 301C533.3 301 506.7 301 480 301C453.3 301 426.7 301 400 301C373.3 301 346.7 301 320 301C293.3 301 266.7 301 240 301C213.3 301 186.7 301 160 301C133.3 301 106.7 301 80 301C53.3 301 26.7 301 13.3 301L0 301Z" fill="#e5005b"></path><path d="M0 152L13.3 146C26.7 140 53.3 128 80 124C106.7 120 133.3 124 160 123.2C186.7 122.3 213.3 116.7 240 114.2C266.7 111.7 293.3 112.3 320 114.8C346.7 117.3 373.3 121.7 400 124C426.7 126.3 453.3 126.7 480 134.5C506.7 142.3 533.3 157.7 560 165.8C586.7 174 613.3 175 640 175.3C666.7 175.7 693.3 175.3 720 170.2C746.7 165 773.3 155 800 148.3C826.7 141.7 853.3 138.3 880 133.8C906.7 129.3 933.3 123.7 946.7 120.8L960 118L960 301L946.7 301C933.3 301 906.7 301 880 301C853.3 301 826.7 301 800 301C773.3 301 746.7 301 720 301C693.3 301 666.7 301 640 301C613.3 301 586.7 301 560 301C533.3 301 506.7 301 480 301C453.3 301 426.7 301 400 301C373.3 301 346.7 301 320 301C293.3 301 266.7 301 240 301C213.3 301 186.7 301 160 301C133.3 301 106.7 301 80 301C53.3 301 26.7 301 13.3 301L0 301Z" fill="#c11b71"></path><path d="M0 197L13.3 196.5C26.7 196 53.3 195 80 189.2C106.7 183.3 133.3 172.7 160 170C186.7 167.3 213.3 172.7 240 173.5C266.7 174.3 293.3 170.7 320 173.3C346.7 176 373.3 185 400 187.5C426.7 190 453.3 186 480 181.5C506.7 177 533.3 172 560 169.5C586.7 167 613.3 167 640 164.3C666.7 161.7 693.3 156.3 720 158.3C746.7 160.3 773.3 169.7 800 175.7C826.7 181.7 853.3 184.3 880 184.8C906.7 185.3 933.3 183.7 946.7 182.8L960 182L960 301L946.7 301C933.3 301 906.7 301 880 301C853.3 301 826.7 301 800 301C773.3 301 746.7 301 720 301C693.3 301 666.7 301 640 301C613.3 301 586.7 301 560 301C533.3 301 506.7 301 480 301C453.3 301 426.7 301 400 301C373.3 301 346.7 301 320 301C293.3 301 266.7 301 240 301C213.3 301 186.7 301 160 301C133.3 301 106.7 301 80 301C53.3 301 26.7 301 13.3 301L0 301Z" fill="#962f7b"></path><path d="M0 199L13.3 198C26.7 197 53.3 195 80 192.2C106.7 189.3 133.3 185.7 160 183.7C186.7 181.7 213.3 181.3 240 185C266.7 188.7 293.3 196.3 320 196.2C346.7 196 373.3 188 400 182.5C426.7 177 453.3 174 480 174.8C506.7 175.7 533.3 180.3 560 187.5C586.7 194.7 613.3 204.3 640 209.8C666.7 215.3 693.3 216.7 720 217.3C746.7 218 773.3 218 800 217C826.7 216 853.3 214 880 209.2C906.7 204.3 933.3 196.7 946.7 192.8L960 189L960 301L946.7 301C933.3 301 906.7 301 880 301C853.3 301 826.7 301 800 301C773.3 301 746.7 301 720 301C693.3 301 666.7 301 640 301C613.3 301 586.7 301 560 301C533.3 301 506.7 301 480 301C453.3 301 426.7 301 400 301C373.3 301 346.7 301 320 301C293.3 301 266.7 301 240 301C213.3 301 186.7 301 160 301C133.3 301 106.7 301 80 301C53.3 301 26.7 301 13.3 301L0 301Z" fill="#6a3777"></path><path d="M0 195L13.3 198.2C26.7 201.3 53.3 207.7 80 211.2C106.7 214.7 133.3 215.3 160 216.3C186.7 217.3 213.3 218.7 240 215.5C266.7 212.3 293.3 204.7 320 207.2C346.7 209.7 373.3 222.3 400 224.3C426.7 226.3 453.3 217.7 480 217.5C506.7 217.3 533.3 225.7 560 229.7C586.7 233.7 613.3 233.3 640 228.2C666.7 223 693.3 213 720 208.8C746.7 204.7 773.3 206.3 800 206.5C826.7 206.7 853.3 205.3 880 202.7C906.7 200 933.3 196 946.7 194L960 192L960 301L946.7 301C933.3 301 906.7 301 880 301C853.3 301 826.7 301 800 301C773.3 301 746.7 301 720 301C693.3 301 666.7 301 640 301C613.3 301 586.7 301 560 301C533.3 301 506.7 301 480 301C453.3 301 426.7 301 400 301C373.3 301 346.7 301 320 301C293.3 301 266.7 301 240 301C213.3 301 186.7 301 160 301C133.3 301 106.7 301 80 301C53.3 301 26.7 301 13.3 301L0 301Z" fill="#433767"></path><path d="M0 245L13.3 247C26.7 249 53.3 253 80 250.5C106.7 248 133.3 239 160 238.2C186.7 237.3 213.3 244.7 240 243.3C266.7 242 293.3 232 320 228.5C346.7 225 373.3 228 400 230.7C426.7 233.3 453.3 235.7 480 240.5C506.7 245.3 533.3 252.7 560 255.3C586.7 258 613.3 256 640 252.2C666.7 248.3 693.3 242.7 720 242.3C746.7 242 773.3 247 800 250C826.7 253 853.3 254 880 250.2C906.7 246.3 933.3 237.7 946.7 233.3L960 229L960 301L946.7 301C933.3 301 906.7 301 880 301C853.3 301 826.7 301 800 301C773.3 301 746.7 301 720 301C693.3 301 666.7 301 640 301C613.3 301 586.7 301 560 301C533.3 301 506.7 301 480 301C453.3 301 426.7 301 400 301C373.3 301 346.7 301 320 301C293.3 301 266.7 301 240 301C213.3 301 186.7 301 160 301C133.3 301 106.7 301 80 301C53.3 301 26.7 301 13.3 301L0 301Z" fill="#29314e"></path><path d="M0 254L13.3 256.7C26.7 259.3 53.3 264.7 80 268.5C106.7 272.3 133.3 274.7 160 272.7C186.7 270.7 213.3 264.3 240 264.2C266.7 264 293.3 270 320 273.7C346.7 277.3 373.3 278.7 400 276.5C426.7 274.3 453.3 268.7 480 264C506.7 259.3 533.3 255.7 560 253.8C586.7 252 613.3 252 640 252.5C666.7 253 693.3 254 720 255.8C746.7 257.7 773.3 260.3 800 260C826.7 259.7 853.3 256.3 880 257.8C906.7 259.3 933.3 265.7 946.7 268.8L960 272L960 301L946.7 301C933.3 301 906.7 301 880 301C853.3 301 826.7 301 800 301C773.3 301 746.7 301 720 301C693.3 301 666.7 301 640 301C613.3 301 586.7 301 560 301C533.3 301 506.7 301 480 301C453.3 301 426.7 301 400 301C373.3 301 346.7 301 320 301C293.3 301 266.7 301 240 301C213.3 301 186.7 301 160 301C133.3 301 106.7 301 80 301C53.3 301 26.7 301 13.3 301L0 301Z" fill="#202731"></path></svg>